<svg xmlns="http://www.w3.org/2000/svg" viewBox="0 0 498.51 489.09"><defs><style>.cls-1{fill:#ad641b;}.cls-2{fill:#c4811c;}.cls-3{fill:#f8c328;}.cls-4{fill:#f5be27;}.cls-5{fill:#c9861d;}.cls-6{fill:#fbc528;}.cls-7{fill:#cf8f1e;}.cls-8{fill:#fcc628;}.cls-9{fill:#fdc729;}.cls-10{fill:#fcc728;}.cls-11{fill:#f7c127;}.cls-12{fill:#f9c328;}.cls-13{fill:#fdc829;}.cls-14{fill:#f2bb26;}.cls-15{fill:#fcc729;}.cls-16{fill:#fbc628;}.cls-17{fill:#fac528;}.cls-18{fill:#f8c228;}.cls-19{fill:#f9c428;}.cls-20{fill:#fac428;}.cls-21{fill:#eeb725;}.cls-22{fill:#d4951f;}.cls-23{fill:#b87019;}.cls-24{fill:#f1ba26;}.cls-25{fill:#d08f1e;}.cls-26{fill:#cf8e1e;}.cls-27{fill:#c6821c;}.cls-28{fill:#c8861c;}.cls-29{fill:#ce8e1e;}.cls-30{fill:#e8af24;}.cls-31{fill:#e5ab23;}.cls-32{fill:#fec829;}.cls-33{fill:#f3bc26;}.cls-34{fill:#d2931f;}.cls-35{fill:#ebb225;}.cls-36{fill:#d69720;}.cls-37{fill:#f6c127;}.cls-38{fill:#f2bc26;}.cls-39{fill:#f0b926;}.cls-40{fill:#eab124;}.cls-41{fill:#ebb325;}.cls-42{fill:#e9b124;}.cls-43{fill:#c3801b;}.cls-44{fill:#c4811b;}.cls-45{fill:#c8851d;}.cls-46{fill:#c17d1b;}.cls-47{fill:#ca891d;}.cls-48{fill:#c6831c;}.cls-49{fill:#c37f1b;}.cls-50{fill:#bf7a1b;}.cls-51{fill:#ae6416;}.cls-52{fill:#c9871d;}.cls-53{fill:#c5821c;}.cls-54{fill:#d0911f;}.cls-55{fill:#e1a622;}.cls-56{fill:#ac6016;}.cls-57{fill:#ac6116;}.cls-58{fill:#b76f18;}</style></defs><g id="Layer_2" data-name="Layer 2"><g id="Layer_1-2" data-name="Layer 1"><path class="cls-1" d="M498.51,300.22c-11.47,15.53-21.14,32.13-23.39,51.54-1,9-2.48,17.52-8.83,23.71-28.41,27.69-56.56,55.71-86.11,82.14-19.49,17.43-46.2,19.3-70.29,23.28-31.72,5.24-64.07,11.35-96.66,6.34-39.88-6.12-81-8.75-114.41-35.51C83.33,439.3,70.3,425.14,61.13,406.51c-9-18.32-21.79-35.06-35.74-50.45-6-6.64-9.57-14.25-10-23.29-.73-14.12-9.45-25.91-11.65-39.62-6.16-27.24-2.53-54.9-3.51-82.36a57.85,57.85,0,0,1,3.91-25c11-39.34,32.13-73.55,54.08-107.35a14.22,14.22,0,0,1,4.41-4.7c24.62-14.1,40.75-38.12,63.89-54.12,13.91-9.62,29.23-14,45-15,33.89-2.25,67.78-7.35,101.94-2.66,15.31,2.1,30.78,0,46.38,2.72,39,6.86,69,30.7,101.08,50.6,5.14,3.2,8.64,9.64,11.91,15.17,15.15,25.61,36.61,47,48.14,75.17,6.84,16.7,12,33.23,11.51,51.39-.24,8.84,0,17.77,6.09,25.19Z"/><path class="cls-2" d="M469.73,141.57c3.77,2.52,3.08,7.23,5.19,10.57-.41,2.45-3.88,6.72,2.91,4.87a14.6,14.6,0,0,1,4.76,13.41,5.53,5.53,0,0,1-1.19.49C464,174,464,174,465.33,191.13c0,6.45.46,12.94-.17,19.33-.77,7.71,3,10.68,9.81,10.8,11.31.19,10,5.27,5,12.05-3.11,3.28-6.58,5.75-11.36,6.15-1.61.14-1.7,1.77-.21.91.46-.27,1.47.47,2.26.82,5.12,4.39,3.32,7.47-2.08,9.07-3.61,1.06-6.39,2.39-7,6.43-3.05,21-1.71,41.87,2.61,62.57.4,1.95,1.85-.18,2.75-.37,3.94-.82,7.66-1.09,10.72,2.19-8.27,3.34-2.11,13.48-8.38,17.77-3.65-6.27-8.53-5.38-13.9-2.24,2.58,4.11,11.58,6.63,6.34,12.69s-9.64,18.79-22.79,8c1.15,5.64,4.68,9.32,1.92,13.71-2.52,4.08-3,10.94-9.81,9.84-5.55-.9-4.46-7-5.12-11.78-5.47,4.31-7.76,9.64-11.84,13.41C401.4,393,389.7,404.74,376,414c-18.74,8.84-33.94,23.3-52.32,32.77-10.34,5.33-20.66,10.45-32.16,12.75-13.33,2-5.22,11.49-6.25,17.78-2.94,3.5-6.94,2.14-10.61,2.31-.82-.87-1.64-1.72-2.47-2.57-4.68-3.54.35-11.1-5.83-14-5.69,1.18-11.87,1-12.74,9.4-.36,3.5-4.58,4.55-8.21,4.54-.43,0-1.08.07-1.25-.18-11.54-16.23-31.55-15.22-47.16-23.17-6.48-5.11-14-5-21.66-4.29-4-4.05-11.36-5.29-11.21-13,1.33-5.48-1-9-5.74-11.66-9.78-5.58-19.41-11.39-28.73-17.75-7.59-5.18-12.9-3.57-15.36,8.94,6.57-5.68,12.37-7.08,18.63-4.69,3.19,1.21,7.36,1.6,7.51,6,.17,4.72-3.25,6.7-7.5,7.41-2.11.35-4.35-.07-7.13,1.5,3.59,4.32,7.89,5.9,11.23,1.35,7.17-9.74,14.49-4.85,21.32-.75,7.94,4.76,1.42,10.6,0,15.92a5.9,5.9,0,0,0,1.26,6c4.07,3.34,9,5.19,13.5,7.77,6.74,4.81,18,2.21,21.21,12.76l-11.21,2.49c-18.6-5.81-35-15.74-51-26.56-12.64-8.54-18-8-28.73.62L97.62,438c-1.66-6.13,11.93-7.37,4.71-15.6-5.87-6.72-12.53-7.82-20.49-5.17-1.61.54-3.35.08-5,.1-2.1-1.22-2.37-3.25-2.39-5.39,7.77-4.54,7-11.14,4.37-18.2a5.83,5.83,0,0,1,4-3.35c8,2.92,14,14.4,24.67,5.45-4.76,2.33-9.6,4.22-14.58.88-2.45-1.64-5.71-3-5.53-6.48s3.61-2.94,6-3.39c5.87-1.14,5-4.83,3.35-8.75-2-4.87-4.5-2-6.91-.3-4,2.88-9,2.65-13.5,3.87-5.87-2.61-7.33-7.82-8-13.51,2-4.3,5.79-7.2,9-11.85-4.62-1.67-9.27,1.77-13.25-.7a5.71,5.71,0,0,1-1.53-3.15c-.15-4.94,4.72-6.45,7-10-3.81,1.37-7.24,3-11,3.67a8,8,0,0,1-8.09-3.38,3.22,3.22,0,0,1,.34-3.35c1.69-1.8,3.62-3.44,4-6.1a17.57,17.57,0,0,1-4.28,6.26,3.42,3.42,0,0,1-3.51-.53c-2.84-3.12-4-6.91-4.44-11,0-4.67-.68-9.54,4-12.74,17.31,5,21.24,1.5,17.72-15.91-1.93-9.59-3-19.41-6.65-28.59a18.9,18.9,0,0,1-2.76-18.16,74.76,74.76,0,0,0,.42-7.77c0-2,0-4-.07-6q-.21-9.07.2-18.14c2-11.9,4.24-23.79,9.32-34.84,2.37-5.15,2-9.07-3.16-12-2.82-3.46-1.46-6.33,1.67-8.39,4.21-2.77,2.55-5.34.23-8.12-.48-5.18,2.88-8.12,6.93-6.55,16,6.21,19.3-7.05,24.11-16,7.57-14.14,14.86-28.2,27.61-38.51,3-2,5.82-4.08,7.82-7.13a243.73,243.73,0,0,1,57.2-38.68A164.46,164.46,0,0,1,248.6,37.68c-2-8.28-5.13-16,1.45-22.25,8.81-5.26,13,2.45,14.33,7.55,2.8,10.78,9.53,11.64,18.35,11.1a85.87,85.87,0,0,1,16.73.4c10,2.21,19.94,4.69,29.11,9.45C334.48,47,339,48.5,342.13,40c2.32-6.36,10.37-8.83,13.08-15.45,4.44-.51,8.31.33,10.71,4.58,3.56,8.09-.79,15.86-1.68,23.6-.63,5.54-.19,9,4.11,12,1.06.74,2,1.58,3.11,2.3,18.7,12.75,37.4,24.85,46.44,47.76,4.66,11.83,16.76,19.35,25.8,28.54.89.78,1.71,1.63,2.53,2.48C455.69,153.38,462.07,143.88,469.73,141.57Z"/><path class="cls-3" d="M469.73,141.57c-8.32,11.52-18.5,13.52-25.92,5.08a20,20,0,0,1,9.25-5c-4,.51-6.73,2.58-9.16,5.1C428.5,133.1,413,119.84,406.31,99c-2.29-7.19-9.44-12.15-16.52-15.71A94.5,94.5,0,0,1,370.6,70.33c-6.63-5.7-14.64-8.39-8.61-21,2.2-4.61,2.56-13.39,3.93-20.25l15.41,11c1.34,3.87-2.2,5.07-3.94,7.26-1.61,3.26-9.31,4.62-3.51,10.16,6.56,6.26,10.67,2.25,13.95-4,2.54-3,5.14-5.94,9.65-3.48,10.63,4.5,18.84,11.88,25.35,21.27,3.64,6.45-4.69,9-4,15.08,4.66-2.92,9.64-2,14.42.81l3,4.75c.4,5.28-3.71,4.85-6.89,5.21-5.24.59-7.6,3.4-7.46,10.32,5.22-17,14.26-6.4,21.93-5A126.92,126.92,0,0,1,469.73,141.57Z"/><path class="cls-4" d="M477.71,321.08c-5.06.21-10.3-1.24-14.78,2.91-2,1.88-4.93,7-7.79,1.78-2-3.6,1.88-6,5.38-7.29a20.42,20.42,0,0,0,3.2-1.9c-.51-4.38-6.91-3.4-6.74-8.63.54-16.83.25-33.68.93-50.5.24-5.82,1.66-12.09,10.6-9.88,2,.49,2.19-.46-1.24-4.57-1-3.94,2.14-3.47,4.3-4.15,3.12-1,6.64-1.7,6.13-6.28.16-3.11,6.69-5,2.52-8.52-6-5-6.38,5.21-10.44,5-10.39-11.35-7.52-24.92-7.47-38,4.34-.42,5.25,3.23,5,5.76-1.42,14,6.52,19.73,18.52,22.34C495.94,254.13,497.15,288.43,477.71,321.08Z"/><path class="cls-5" d="M137,22.07c2.51-3.93,7.16-3.32,10.7-5,11.79,9.28,23.21,9,34.47-1.54-7.34-2.17-15.25,5-22-1.6,14.3-4.66,28.45-11.7,42.35,1.84,2.34,2.28,8.3.84,12.59,1.12-.9,6.23-6.2,5-10.06,5.62-8.75,1.46-16.54,4.68-23,10.8-1.47,14.49-12.15,11-21.16,10.9-10.67-1.27-17.35,6.61-25.11,11.46-16,10-31.51,20.71-43.19,35.93-.61,1-1.3,2-2,3-3.81,4.21-.92,7,2.13,9.64,3.52,3,5.48,6.81,4.71,11.4-.72,4.38.76,10.61-5.59,11.62-6.71,1.07-8.74-4-9.36-9.66-.19-1.69-.19-3.44-2.16-5.62-5.66,5.45-10.51,11.35-12.39,15.06,1-4.58,6.63-3.39,12.09-.79S90.59,132,87.16,140c-5.14,12.09-4.86,12.21-25.5,6.78-2,4.87-1.44,10.07-1.74,15.15a6.9,6.9,0,0,1-3.32,6.12c-2.64.82-4.71-.35-6.68-1.89a22.73,22.73,0,0,1-5.05-7.28,10.89,10.89,0,0,1-.83-3.37c0-3.64,2.9-6.14,3.7-9.48a15.5,15.5,0,0,1,1.13-3.67c4.67-8.57,4.57-14.51-7.54-14.23-1.23,0-2.33-.95-3.17-1.95,2-3.42,1.38-8.06,5.05-10.68,8,2.22,16,4.12,21.88-4.44,1.64-2.41,4.45-4.87,2.61-7.94-1.94-3.25-5.29-1.63-8.13-.89-2,.53-4,1.45-6.12.13.59-5.51,4.67-9,7.7-13,10.75.7,20.95.34,26.55-11.36,1.27-2.66,1.63-4.59-.35-6.75q1.25-2.52,2.47-5c10.85-1.55,20.47-5.61,28-13.83-2.86-2.85-9.82-.2-9.77-7.13,2.68-.43,5.75.44,7.71-2.34,2.41-3.15,5.5-1.93,8.15-.84,7.58,3.12,13.16-.83,18.95-4.67,4.44-3,6.6-5.72.6-9.29A17.14,17.14,0,0,1,137,22.07Z"/><path class="cls-6" d="M290.37,456.39c19.93-3.58,36-15.15,52.8-25.31C354,424.54,362.63,414.14,376,412a2.43,2.43,0,0,1,3.23-.39c3.17,8,8.13,14.46,15.93,18.49.51,1.86.75,3.68-.88,5.17-25.65,28.78-61.17,33.4-96.17,39.32-5.13,1-11.32,4.41-14-2.91C281.78,465.43,282.08,459,290.37,456.39Z"/><path class="cls-7" d="M45.6,157.17l5.29,7.8c1.09,13.12-7.11,24.39-7.28,37.36-.18,13.75-.56,13.75,10.81,16.7,3.8,8.81-2.71,12.31-8.74,16.26,4,3.18,9.7,1,13,5l0,5.3c-3.2,6-12,3.14-15.11,9.72,5-2.14,9.43-7.26,15.09-2-3.58,6-3.42,11.35,2.59,15.76-1.61,1.42-3,3.07-5.2,3.75-13,4.11-13.82,6.1-10.21,19.78,2,7.56,7.74,14.93,2.25,23.27-4.08,3.72-1.71,8.63-2.42,13-7-7.63-14.61-10.72-23.42-2.61-4.26-3.71-1.86-8.7-2.53-13.1a9.51,9.51,0,0,1,5.12-3.61c5.49-1.9,11.92-2.27,9.85-11.45-2-8.78-5.63-14-15.43-12.75a28,28,0,0,1-10.15-.66c-3.95-3.8-1.92-8.7-2.41-13.13,4.13-2.19,8.53-.58,12.79-.95,4-.35,10.1,1.4,10.37-4.73s1.34-13.51-5-17.88c-5.85-4.06-13.18-.52-14.56,6.65-.95,4.95.74,10.6-3.95,14.53a43.3,43.3,0,0,1,.37-31.52c3.78-3.63,8.77-3,13.35-3.81,4.75-.83,6.26-4,6.1-8.38-.15-3.92-2-6.44-6-7.16-4.58-.81-9.58-.19-13.38-3.77C7.17,210,5.1,205.1,9.06,201.2c4.72,3.27,9.63,5.62,15.66,4.23,4.46-1,6.36-4.05,7.06-8.19.44-2.64.6-5.48-2.06-6.9-3.67-2-7.43-1.38-11.1.59s-3.57,8.31-9.22,7.91c-1.21-9,4.1-16.06,7.36-23.71,16.72,3.65,16.73,3.65,24.15-12C42,160.74,43.13,158.43,45.6,157.17Z"/><path class="cls-8" d="M355.21,24.52c6.45,8.08-8.69,7-5.76,13.59-7.48,2-7.33,7.71-5,14.85l-43.76-15.6c-6.82-4-15.31,2-21.87-3.63-.8-8.6,1.78-16.7,3.72-24.9C308.35,6.81,331.81,15.52,355.21,24.52Z"/><path class="cls-9" d="M178.43,32.19c9.18-12.36,24-11.3,36.65-15.34l30.64-5.7c5.55-1.83,7.76-.27,5.7,5.62-4.54,7.72-4.3,14.8,6.14,22.41C231.29,41.65,208.45,46,186.22,53l-1.31-1.16A171.27,171.27,0,0,1,178.43,32.19Z"/><path class="cls-10" d="M196.67,451c12.68,3.55,24.85,9,38.1,10.38,4.12.43,6.25,1.14,4.51,6.28-1.69,5,2.33,6.55,6.49,7.2,4,2.48,4.88,5.49-.66,5.88-6.55.47-13.36,1.69-19.84-1-9.49-6-20.27-8.2-31-10.6-6.62-6.18-16.14-5.76-23.5-10.28-3.34-4.81-.15-7,3.58-8.94C181.92,447.55,189.12,453,196.67,451Z"/><path class="cls-6" d="M103.31,445.69c-.68-10.71,7.33-9.84,14-10.24,5.42-.31,10.42,2.31,14.25,5.45,15.67,12.85,35.33,18.84,51.49,30.73C155.2,466.94,126.3,465.4,103.31,445.69Z"/><path class="cls-11" d="M485.82,219.13c-18.46,1.11-20.79-.81-21.18-17.15-.09-3.76,1.12-7.88-2.33-10.95,2.51-6.16-7.33-13.78,1.26-18.58,5.48-3,12-7.93,19-2C486.14,186.49,485,202.87,485.82,219.13Z"/><path class="cls-12" d="M438.58,370.36c2.32-3.66.8-6.22-2-8.88-1.89-1.76-6-3.35-3.09-7,2.6-3.22,5.48-.5,8.1.62,3.49,1.5,6.92,3.13,12.47,5.65-3.68-9.08-1.28-13.45,7.59-12.36-2.31-8.28-12.05-7.91-14.49-16.73,7.95,4,13.58.86,19.18-4.92,1.22,4.85,2.13,8.5,3,12.14-2.44,2.35-2.33,5.44-2.09,8.36,1.27,15.34-5.74,26-18.54,33.54C439.23,383.23,437.2,378.46,438.58,370.36Z"/><path class="cls-13" d="M6.39,269.17c.08-4.73.39-9.48.18-14.2-.32-7.11,0-12.82,9.87-12.17,8.36.56,16.07-1,16.58,11.86.82,21.09-4.36,24.91-26.31,16.89C6.62,270.75,6.51,270,6.39,269.17Z"/><path class="cls-14" d="M394.32,435.3l.06-5.17c.45-15.8.45-15.8-15.67-18L376,412a330,330,0,0,1,36.61-31.1l1.61.83c7.22,6.88,13.84,14,8.7,25.12-1.69,1.79-3.38,3.59-5.08,5.38-4.67,1.07-4.67-2.59-5-5.34-.57-4.19-.07-8.77-5.66-10.3-1.24-1-1.77,1.94-.88.46.15-.25.35-.13.75.09,10,5.34,3.74,13.25,3.2,20.25Z"/><path class="cls-13" d="M9.12,284.68c20-7.91,33,1.08,30.92,21.29-.35,3.4-2.23,4.16-5,4.58-5.1.77-10.18,1.73-15.27,2.6C14.48,304.3,7.75,296,9.12,284.68Z"/><path class="cls-15" d="M22.26,326.25c-.61-11.42,9.48-8.05,14.69-9.38,10.08-2.59,3.35,9.6,8.73,12Q47,334,48.34,339.23c-.94,11.41-4.49,12.95-18.35,8C24,341.45,20.88,334.69,22.26,326.25Z"/><path class="cls-16" d="M9.4,198.84c1.45-3,2.61-6.26,4.41-9.08,4.89-7.63,12.46-4.18,18.67-3.3,6.7.95,2.9,6.86,2.71,10.56-.33,6.14-1.34,12.9-9.79,11.94-6-.69-15.81,5-16.34-7.76C9.21,200.42,9.32,199.63,9.4,198.84Z"/><path class="cls-15" d="M6.83,214.53c3-.06,6-.1,9-.19,7.82-.25,14.76-1.44,14.8,11,.05,12.23-5.69,13.25-14.87,12.34-3-.29-6-.06-9-.08Q6.79,226.1,6.83,214.53Z"/><path class="cls-17" d="M137,22.07c6.88.63,11,6.42,17,8.74-11.72,15-19.07,17.28-38.21,12.12C119.91,33,131.38,30.51,137,22.07Z"/><path class="cls-16" d="M45.6,157.17c-1.51,4.88-2.83,9.83-4.57,14.62-4,10.87-15.48,12.4-24.26,3.34.34-5.67,3.25-10.42,5.55-15.38,6.93-8.51,14.88-7.71,23.31-2.56Z"/><path class="cls-6" d="M38.16,126.22c19.92-.9,19.89-.91,13.28,17.62a24.2,24.2,0,0,0-.68,5.08c-7.68,3.6-15.37,6.78-23.18.29C29.31,140.72,34.6,133.87,38.16,126.22Z"/><path class="cls-18" d="M76.8,417.36c5.89-3.73,12.35-7.67,19.09-4.16,5.94,3.1,12.76,7.86,13.62,14.56.81,6.25-8.88,5.48-11.89,10.27C89.36,432.46,83,425,76.8,417.36Z"/><path class="cls-14" d="M438.58,370.36c.8,6,3.95,9.67,10.13,10.39-3.14,5.42-7.79,9.38-12.67,13.11-10.23,0-17-6.22-23.47-13l.08.1c4.14-5.39,8.15-10.87,12.51-16.07.82-1,3.13-1.36,4.5-1a2.58,2.58,0,0,1,1.76,4c-2.19,3.71-5.6,8.66-.06,10.77C437.4,380.89,434.44,371.77,438.58,370.36Z"/><path class="cls-19" d="M61.33,386.28,34.93,355c3.25-9.15,10.75-4.44,16.6-5.12,9.78,5.47,13,15.77,17.38,24.9C72,381.18,68.49,385.47,61.33,386.28Z"/><path class="cls-20" d="M53.45,102.4c3.45-1.59,5.76-5.36,10.17-5.16,3.45.15,7.1-.2,9.31,3.2s-.53,5.81-1.94,8.23c-7.86,13.58-18.85,16.21-27.78,6.87Z"/><path class="cls-21" d="M251.42,16.77c-.19-3.6-2.26-5.3-5.69-5.62,8.42-4.5,17.48-1.76,26.25-2.27-2,9.32,3.2,16.22,7.91,23.27,5.8,6.31,15-1,20.83,5.21-10.28,0-20.56,0-30.84.06-4.89,0-7.49-.21-6.51-7.15C264.39,23.1,259.75,17.45,251.42,16.77Z"/><path class="cls-16" d="M160.14,13.89c9.75,1.46,19.18-4.89,29.19-1.44C176.28,31.26,159.36,33,147.68,17Z"/><path class="cls-22" d="M225.27,479.74c6,0,12,0,18,0,4.23,0,3.82-2.18,2.49-4.91a38.83,38.83,0,0,0,4.64-1.47c-2.86-14.68,9.81-11.09,16.64-14.27,4.63,5.06-.56,14.23,7.47,17.88,0,.89.06,1.77.1,2.66-12.5-.43-24.61,4.36-37.19,2.7C233.31,481.81,228.67,483.65,225.27,479.74Z"/><path class="cls-17" d="M108.08,45.27c3.7,4,10.18,1.6,14.81,7.59-10.41,6.26-17.11,19.69-33.07,13.36C91.26,55.19,101.12,51.5,108.08,45.27Z"/><path class="cls-3" d="M87.35,71.27c2.88.53,7.94-1.13,6.27,4.65-3,10.37-16.23,18-27.07,16.23-2.19-.35-4.14-.79-5.4-2.77C64.68,81.5,70,76.1,79.33,76.25,83.1,76.31,85.82,74.75,87.35,71.27Z"/><path class="cls-23" d="M61.33,386.28c6.8-4,7.27-8.77,2.87-15.23-4.05-6-7.13-12.57-10.64-18.9-4.56-2.48-5.9-5.76-2.54-10.21l7.4,2.58c3.45,1.48,3.28,5.49,5.49,7.84l.15,2.75c3.25,3.68,5.23,7.84,5,12.86l8.09,12.82c4.29,2.2,6.53,5.38,5,10.38l-2.37,2.63a46.56,46.56,0,0,1-18.28-4.75Z"/><path class="cls-24" d="M61.55,389.05c6.69-.72,13.66-2.49,18.28,4.75,9.6,13.26,9.6,13.26-5.43,18.17Z"/><path class="cls-25" d="M279.89,32.15C271.29,26.42,261.82,21,272,8.88l10.59-.05C287,17.21,283.69,24.71,279.89,32.15Z"/><path class="cls-26" d="M443.84,102.49c-2,.58-4.24,2.06-6,1.62-12.63-3.25-12.6-3.37-11.49,10.6-5.84-1.81-9.1-5.26-8.06-11.22.89-5.11,4.44-8.21,9.73-8.84,2.94-.35,6.13.24,8.22-2.67C440.68,94.12,441.81,98.63,443.84,102.49Z"/><path class="cls-27" d="M412.57,380.83l23.47,13a39,39,0,0,1-13.07,13C423.85,396.47,416.29,389.41,412.57,380.83Z"/><path class="cls-28" d="M433.26,87.23c-8.11-1.16-15,1.91-22.82,5.62l12.4-21.51C429.62,74.47,430.23,81.64,433.26,87.23Z"/><path class="cls-29" d="M410.25,417.42c-.69-2-2.46-4.4-1.89-5.91,4-10.5.47-14.48-12.52-11.08,11.18-9.19,16.8-7.84,19.23,2.39.77,3.21-.71,7.05,2.81,9.44Z"/><path class="cls-7" d="M27.58,149.21l23.18-.29c-1.2,3.07-5.54,4.19-5.13,8.27-7.82.39-16-2.06-23.32,2.56C21.87,155.13,26.12,152.86,27.58,149.21Z"/><path class="cls-30" d="M376.11,45l5.22-4.87c5.7,2.8,11.93,4.77,16.14,10-4-.07-5.49,3.44-7.85,5.69C375.85,57.45,375.62,57.26,376.11,45Z"/><path class="cls-22" d="M51,341.94c-.64,3.78.71,7.05,2.54,10.21-6.2,1-13-2.14-18.63,2.84q-2.46-3.9-4.94-7.8c6.52-1.71,16.32,4.13,18.35-8,.86,0,1.71,0,2.57,0h0Z"/><path class="cls-22" d="M290.37,456.39c-5.37,3.68-6.62,9.08-4.62,14.66,2.2,6.15,8.24,2.34,12.4,3.57-3.64,4.06-8.58,2-12.92,2.71C276.71,463.74,277.57,460.25,290.37,456.39Z"/><path class="cls-31" d="M477.83,157c-.75,5.29-5.41,7.15-8,4.14-4.21-4.86,2.06-6.64,5.11-9Z"/><path class="cls-32" d="M227.88,454.06c-20.4-3.86-37.33-12.89-52.94-27.46-14.21-13.27-33.15-21.34-49-33.1C107.36,379.65,91.29,362,83.74,340.35,75.32,316.17,71.9,290.23,66.45,265c-6.85-31.74-2.33-62.55,12.82-90.56,26-48.06,56.61-92.54,109.88-115C204.38,53.1,220,48.6,236.66,47.85c15-.68,29.34-5.87,44.82-5.54,34.16.74,61.1,17.17,89.07,34.17,20.36,12.36,31.24,30.56,43.82,48.76,6.8,9.85,17,17.27,25,26.39,17.62,20.17,19.89,44.44,17,69.65-2.42,21-6.52,42.1-4.3,63.14,3.15,30-12.16,51.95-28.64,73.67-30.43,40.08-74.19,62.66-116.41,87-11.2,6.46-24.62,7.36-37.49,8.76C255.64,456,241.76,455.4,227.88,454.06Z"/><path class="cls-18" d="M89.91,92.09c8.21-17.64,25.9-25.07,39.74-36.6,5.53-4.6,12-8.16,18.38-11.59,3.71-2,7.69-6.65,12.39-1.32,3.84,2.85,5.31,10.09,13.22,4.44,3.8-2.73,9.14,2.31,12.66,6.06l-.08-.11c-18.4,12.74-38.71,22.78-54.78,38.81-8.64-.09-16.4-1.55-18.55-11.94C108.83,90.73,124.29,89,124,97.32c-11.56,12.73-21.75,26.06-27.7,42.72-2.41,6.75-9.58,11.91-14.94,17.44-3.25,3.34-5.32-.48-7.37-2.26-4.29-3.75-7.61-3.37-10.12,1.89.8,4.24-1,5.89-5.16,5.16-4.33-6.06-2.27-12.69-.64-18.68,1.75-6.44,5.1-.79,7.73.09,4.76,1.58,10.32,8.09,13.63,4.37,2.72-3.05,6.72-9.85,6.09-13.28-1.11-6.1-8.55-7.15-14.47-8-3.74,4.48,4.26,6.46,1.7,10.42-12.69-2-12.73-2-6.46-12.15,3-4.77,6-9.53,9.21-14.1,1.36-1.9,2.94-5.28,5.85-3.5,2.25,1.38,6.16,3.11,4.94,6.72-1.7,5.06-2.72,9.38,3.71,11.4,1.52.48,4,.26,3.38-2.24-1.36-5.37,6-11.77-2.12-16.31-7.55-4.24-12.52-9-1.34-15,3.9,2.36,8.63,2.51,12.58,4.93C100.89,88.24,94.21,93.41,89.91,92.09Z"/><path class="cls-16" d="M53.47,219.58c-1.56-.12-3.59-.92-4.57-.23-2.25,1.6,1.1,8.44-5,6.34-3.7-1.27-5.53-5.64-5.11-9.56C40.6,198.58,42.48,181,50.89,165L56,167.43c5.08-1.52,3,4,5.22,5.3,8.73-.27,13.69,1.71,7.86,11.62-6.36,10.79-7.25,23.35-10.61,35.12C56.87,221.09,55.18,221.1,53.47,219.58Z"/><path class="cls-16" d="M48.1,315.89c.65-11.09-6.8-20.25-7.44-31-.54-9.05-2.58-19.79,13.19-14.2,2,.72,4.92-1,7.41-1.62,2.71,13.82,5,27.76,8.36,41.41,1.49,6-.12,8.1-5.54,8.09S51.34,328.85,48.1,315.89Z"/><path class="cls-11" d="M157.57,451.42c-8.2-4.18-3.64-8.94-.62-13.62,1.78-2.78,2.09-8.78,1.59-8.36-6.82,5.74-10.49-12.93-17.27-2-2.11,3.41-3.42,9-9.1,7.56-5-1.25-11.26-5.11-11.29-9.15,0-6,5.79-5.65,10.87-3.65A4.65,4.65,0,0,0,138,419c1.23-4-2.16-3.64-4.53-4.28-5.71-1.54-11.7-5-15.28,3.4-.85,2-2.64,3.88-5,2.26-1.11-.77-1.83-2.9-1.77-4.37.2-5.26-.92-10.43,5.2-14.43s9.44-.71,13.76,2C140.51,410.1,151.07,416,160.8,423c3.53,2.56,12.25,5.23,4.77,12.76-2.87,2.26-1.45,5.1-1.31,7.93C164.47,448.13,163.57,452.14,157.57,451.42Z"/><path class="cls-33" d="M82.2,391.17q-2.52-5.19-5-10.38c2.25-8.72,17.2,1.76,14.7-14.82,6.86,8.61,11.66,14.19,9.91,21.17-1.64,6.54-7.75,2.51-12.19,2.38,7.26,7.92,7.31,8,16.69,2.07,2.22-1.41,4.18-3.55,6.73-1.22,3.73,3.42-.33,5.13-1.94,7.25-6.25,8.24-13.3,5.48-20.11,1.05C87.76,396.6,85.1,393.7,82.2,391.17Z"/><path class="cls-34" d="M124,97.32c-3.61-2.18-7.62-3.92-10.75-6.65-7.85-6.85-6.69-12.3,5.16-19.21-8.8,16.6,7.28,14.5,13,20.32C130.31,95.42,127.71,97.08,124,97.32Z"/><path class="cls-35" d="M53.47,219.58l5.05-.11q.06,10.42.14,20.83c-4.7,0-9.41.17-14.1-.1-4-.23-4.49-3.94-4.66-6.66-.32-5.32,3.29-1.39,5.13-1.73C51.91,230.53,53.7,225.76,53.47,219.58Z"/><path class="cls-36" d="M157.57,451.42c3.09-1.79,5.74-3.76,4-8s.4-6.31,4-7.64c-.25,7.17,10.53,5.41,10.24,12.63.92.62,1.22,1.22.9,1.81s-.64.88-1,.88c-3.31,1.52-5.24,3.94-5,7.75Z"/><path class="cls-35" d="M58.67,253.33c-3.55.57-8.1-1.4-10,3.6-1.1,3-.5,7.51-6.17,5.11-4.38-1.85-4.11-4.67-2.5-8.27,1.33-3-.51-9.1,6.19-6.55,4.65,1.77,8.22-1.86,12.45-1.62C58.68,248.18,58.68,250.76,58.67,253.33Z"/><path class="cls-37" d="M69.08,368c-3.83-3.44-5.29-7.81-5-12.86,6.06-1.54,12-5,19.65-1.07C78.38,358.72,76.06,365.52,69.08,368Z"/><path class="cls-38" d="M63.91,352.36c-5.6,0-5.12-4.21-5.49-7.84,5.6-2.5,14.65-9.07,16.51-5.72C79.83,347.66,64.75,345.09,63.91,352.36Z"/><path class="cls-39" d="M175.75,451.11l.06-2.69c7.76-5.67,14.55-3.49,20.86,2.57-2.38,4.33-5.6,7.47-10.08,3.05C183.24,450.74,179.52,451.44,175.75,451.11Z"/><path class="cls-40" d="M61.26,172.73,56,167.43l2.71-5.16,5.16-5.16c3.41.16,7.3-.4,7.6,4.72.23,3.83-2,5.41-5.46,5.76C62.94,167.89,61.58,169.84,61.26,172.73Z"/><path class="cls-11" d="M477.7,232.57c7.65,2.64,4.56,5.31-.19,7.35-3.25,1.39-7.63-.73-10.24,3.08-4.55,0-6.09-2.84-5-6.56,1.3-4.42,3.74-.91,5.57-.1C472.45,238.38,474.24,233.35,477.7,232.57Z"/><path class="cls-22" d="M227.88,454.06l41.62-.21C255.65,458,241.77,457.76,227.88,454.06Z"/><path class="cls-41" d="M274.52,477c-11-2.42-7.66-10.81-7.47-17.88,2.57.41,6.92-1.52,5.59,4.1A18.55,18.55,0,0,0,274.52,477Z"/><path class="cls-22" d="M50.91,339.26c-.62-6.56.54-11.66,9.82-11C59,333.78,57.89,339,50.89,339.25Z"/><path class="cls-42" d="M73.11,321.81c2.67,8.31-1.13,10.48-8.22,11.59C65.23,327.29,69.05,325.14,73.11,321.81Z"/><path class="cls-43" d="M376.11,45c2.08,5.71,2.93,13.41,12.16,7.46.45,1.12.89,2.23,1.34,3.34-2.12,3.24-3.91,6.77-6.45,9.63-2.36,2.66-5.75,5.65-6.06-1.57-.05-1.16-.32-2.86-1.1-3.35C366.14,54.26,366.11,54.31,376.11,45Z"/><path class="cls-44" d="M453.81,123.24c-2.6,5.23-5.74,9.85-12,10.29-5.92.41-8.5-3.24-8.46-8.84.06-6.37,2.87-11.32,9.58-11.21C448.44,113.58,451.54,118.23,453.81,123.24Z"/><path class="cls-45" d="M410.8,66.43c-2.54,10.39-8.24,13.34-17.09,10-2.39-.92-7.28.87-5.48-4.2,1.2-3.41,4.69-7.87,8.68-4.46C402.29,72.32,406.08,69.17,410.8,66.43Z"/><path class="cls-2" d="M443.9,146.74c1.4-10.12,9.84-8,16.65-8.68-4.14,5.4-9.4,8.83-16.74,8.59Z"/><path class="cls-46" d="M186.3,53.08a37.22,37.22,0,0,1-4.92-1.22c-8.93-3.44-8.91-3.47-10.89,6.13a19.73,19.73,0,0,1-10.07-15.41c1.94-.75,4.45-2.69,5.75-2.07,9.19,4.38,11.11-1.25,12.26-8.32C183.87,38.09,186.86,44.92,186.3,53.08Z"/><path class="cls-47" d="M378.71,412.11c6-3,12.08-4.91,17.7.71,6.54,6.55,0,11.69-2,17.31C382.94,429.53,378.41,422.92,378.71,412.11Z"/><path class="cls-46" d="M348.51,436.43c4.76-.11,7.28,2.74,7.6-1.44.2-2.64-1.59-7.68,3.28-5.73,5.27,2.11,7.2,8.41,8,13.84.58,4-2.82,4.28-6.28,3.51-2.22-.5-5.48-2.22-6.63,1.14-1.08,3.16-1.38,6.46-5.58,3.38s-5.47-8.19-5.31-12.56C343.78,433,348.66,436.39,348.51,436.43Z"/><path class="cls-7" d="M378.1,435.89c-6.37-2-10.23-6.12-10.5-12.66,0-.74,2.14-2.4,2.58-2.18C376.22,424,374.93,431,378.1,435.89Z"/><path class="cls-48" d="M338,458.51c-3.36-.47-5.46-2.3-5.51-5.69,0-3.17,2.21-4.23,5-4.12s4.5,1.85,4.58,4.77S341.15,458.32,338,458.51Z"/><path class="cls-49" d="M201.66,34.6c-.29,2.24-1.69,4.31-4.71,4.22-2.82-.08-3-2.48-2.95-4.64.1-2.42,1.46-4.11,3.87-4.17S201.74,31.39,201.66,34.6Z"/><path class="cls-50" d="M475.15,187.53c-2.45-.21-4.08-1.7-4-4,0-2.76,2.44-3.15,4.62-3,1.71.13,3.54.82,3.45,2.93C479.07,185.85,477.57,187.26,475.15,187.53Z"/><path class="cls-51" d="M298.12,383.32c-43.73,0-87.45.15-131.18-.05-30.27-.14-42.63-21.36-48.44-51.36-3-15.77,2.89-28,15.75-36.84,10.3-7.11,15.87-15.25,10.61-28.41-2.18-5.46-2.49-11.86-2.71-17.86-.89-24.89,6-36.16,29.73-43.43,10.47-3.2,12.77-8.35,12-17.64-1.76-20.14,6.22-34.06,24-45,13.13-8.07,25.44-17.69,39-25.28,7.66-4.28,12.33-10.84,11.86-20.13-.4-8.19,2.71-9.85,11.07-8.79,24,3,34.71,22.62,49.14,37.54,12.81,13.25,15.14,31.62,22.18,47.68,1,2.27,1.68,5.45.88,7.6-5.81,15.46,3.47,21.45,15,28.71,23.62,14.87,31.79,39.92,23.8,67.8-1.38,4.82.57,7.06,2.95,10.23C399,308.4,401.18,332,399.17,356.05c-.92,11-9.48,16.88-19.35,20.62-12.95,4.92-25.84,9.75-40.09,9.44-13.86-.31-27.74-.07-41.61-.07Z"/><path class="cls-52" d="M137.72,78.74c-6-1.08-9.34-4.08-9-10.59.33-6.05,2.49-10.77,9.2-9.61,5.72,1,10.92,4.87,10.69,11.2C148.44,75.65,143.39,78.21,137.72,78.74Z"/><path class="cls-53" d="M89.91,92.09c10.38-8.33,10.38-8.33,19.25,11.71C103.51,98.55,94,100.2,90,92Z"/><path class="cls-29" d="M160,65.91c-7.25-4.62-8.93-10.72-12.83-16.54C157.2,52.37,157.2,52.37,160,65.91Z"/><path class="cls-7" d="M53.16,176.17c2.9.14,4.53,1.92,5.07,4.68.48,2.48-.73,4.35-3.19,4.54-3.34.25-5.94-1.28-6-5C49,178.05,50.79,176.75,53.16,176.17Z"/><path class="cls-54" d="M60.52,305.16A4.23,4.23,0,0,1,57,309.69c-2.85.5-4.83-1.2-5.2-4.1a4,4,0,0,1,3.48-4.54C58.14,300.52,59.9,302.32,60.52,305.16Z"/><path class="cls-55" d="M446.12,122.12c-.43,2.72-1.41,5.14-4.58,5.27-2.31.1-2.61-1.86-2.5-3.63a4.93,4.93,0,0,1,3.85-4.66C444.86,118.62,445.89,120.18,446.12,122.12Z"/><path class="cls-32" d="M296.83,375.66c-43.31,0-86.62.22-129.93-.09-20-.15-30.26-9.53-38-32.84-6.63-20-3.75-30.53,11.88-43.46,16.22-13.42,15.83-14.94,10.93-35.41-3.16-13.2-5.58-27.36,3.63-40,6.15-8.4,16.28-9.21,24.73-13.2,5.84-2.75,13.11-4.42,11.33-13.22-7-34.37,17.71-48.23,40.72-63.1,6.53-4.22,13.68-7.46,20.28-11.58,6.39-4,12.16-9.41,13.4-16.89,2.21-13.45,10.69-10.19,16.68-5.64,27.07,20.54,46.2,46.58,51.48,81.09.42,2.77-.08,6.59-1.74,8.63-8.49,10.45-2.61,13.63,6.9,17.74,25.07,10.84,40.67,30.23,36.14,57.88-2.47,15.06,1.35,24.85,8.12,36.92,8.82,15.71,9.3,34,8.32,51.9-.4,7.41-5.79,11.29-12,14-14.79,6.45-29.77,11.28-46.43,9.88-12.06-1-24.27-.19-36.41-.19Z"/><path class="cls-56" d="M331.56,237.72c-.4,11.34-13.62,25.5-22.32,25.67-7.18.14-14-11.09-14.05-23,0-9.41,9.05-16.28,20.94-15.95C326,224.73,330.93,229.9,331.56,237.72Z"/><path class="cls-57" d="M209.46,237.43c-.38-12.43,7-14.87,16.13-14.84s17.78,10.84,17.66,21.9c-.11,10.48-6.6,16.91-17,16.87C217.08,261.33,209.24,249.61,209.46,237.43Z"/><path class="cls-58" d="M271.1,331.49c-6.88.11-17.16-9.29-17.19-18.25,0-2.76.52-5.6,3.46-6.19,2.38-.48,3.17,2,4.24,4,8.76,15.88,9.48,15.9,21.43,1.38,1.36-1.64,2.59-3.82,5.16-2.88s2.49,3.5,2.09,5.5C288.47,324.06,285.06,331.71,271.1,331.49Z"/></g></g></svg>